<?xml version="1.0" encoding="iso-8859-1"?>
<!-- Generator: Adobe Illustrator 19.0.0, SVG Export Plug-In . SVG Version: 6.00 Build 0)  -->
<svg version="1.1" id="Capa_1" xmlns="http://www.w3.org/2000/svg" xmlns:xlink="http://www.w3.org/1999/xlink" x="0px" y="0px"
	 viewBox="0 0 464 464" style="enable-background:new 0 0 464 464;" xml:space="preserve">
<path style="fill:#CFDFE8;" d="M32,68h400c17.673,0,32,14.327,32,32v144c0,17.673-14.327,32-32,32H32c-17.673,0-32-14.327-32-32V100
	C0,82.327,14.327,68,32,68z"/>
<g>
	<path style="fill:#195C85;" d="M48,228h368v48H48V228z"/>
	<path style="fill:#195C85;" d="M416,108H48c-4.418,0-8-3.582-8-8s3.582-8,8-8h368c4.418,0,8,3.582,8,8S420.418,108,416,108z"/>
	<path style="fill:#195C85;" d="M416,140H48c-4.418,0-8-3.582-8-8s3.582-8,8-8h368c4.418,0,8,3.582,8,8S420.418,140,416,140z"/>
	<path style="fill:#195C85;" d="M416,172H48c-4.418,0-8-3.582-8-8s3.582-8,8-8h368c4.418,0,8,3.582,8,8S420.418,172,416,172z"/>
</g>
<g>
	<path style="fill:#E9686A;" d="M40,188h32v16H40V188z"/>
	<path style="fill:#E9686A;" d="M88,188h32v16H88V188z"/>
</g>
<g>
	<path style="fill:#7FCAC9;" d="M192,396c-4.418,0-8-3.582-8-8c-0.069-9.274,3.421-18.222,9.752-25
		c8.284-8.218,8.338-21.595,0.121-29.879c-0.04-0.04-0.08-0.081-0.121-0.121c-6.331-6.778-9.821-15.726-9.752-25
		c0-4.418,3.582-8,8-8s8,3.582,8,8c-0.051,5.643,2.206,11.062,6.248,15c13.003,14.13,13.003,35.87,0,50
		c-4.042,3.938-6.299,9.357-6.248,15C200,392.418,196.418,396,192,396z"/>
	<path style="fill:#7FCAC9;" d="M232,396c-4.418,0-8-3.582-8-8c-0.069-9.274,3.421-18.222,9.752-25
		c8.284-8.218,8.338-21.595,0.121-29.879c-0.04-0.04-0.08-0.081-0.121-0.121c-6.331-6.778-9.821-15.726-9.752-25
		c0.006-4.418,3.593-7.995,8.011-7.989c4.41,0.006,7.983,3.579,7.989,7.989c-0.051,5.643,2.206,11.062,6.248,15
		c13.003,14.13,13.003,35.87,0,50c-4.042,3.938-6.299,9.357-6.248,15C240,392.418,236.418,396,232,396z"/>
	<path style="fill:#7FCAC9;" d="M272,396c-4.418,0-8-3.582-8-8c-0.069-9.274,3.421-18.222,9.752-25
		c8.284-8.218,8.338-21.595,0.121-29.879c-0.04-0.04-0.08-0.081-0.121-0.121c-6.331-6.778-9.821-15.726-9.752-25
		c0-4.418,3.582-8,8-8s8,3.582,8,8c-0.051,5.643,2.206,11.062,6.248,15c13.003,14.13,13.003,35.87,0,50
		c-4.042,3.938-6.299,9.357-6.248,15C280,392.418,276.418,396,272,396z"/>
</g>
<g>
</g>
<g>
</g>
<g>
</g>
<g>
</g>
<g>
</g>
<g>
</g>
<g>
</g>
<g>
</g>
<g>
</g>
<g>
</g>
<g>
</g>
<g>
</g>
<g>
</g>
<g>
</g>
<g>
</g>
</svg>
