<?xml version="1.0" encoding="iso-8859-1"?>
<!-- Generator: Adobe Illustrator 19.0.0, SVG Export Plug-In . SVG Version: 6.00 Build 0)  -->
<svg version="1.1" id="Capa_1" xmlns="http://www.w3.org/2000/svg" xmlns:xlink="http://www.w3.org/1999/xlink" x="0px" y="0px"
	 viewBox="0 0 512.001 512.001" style="enable-background:new 0 0 512.001 512.001;" xml:space="preserve">
<path style="fill:#373C41;" d="M349.539,485.916c-7.98,0-14.449-6.469-14.449-14.449V354.572c0-22.097,17.913-40.009,40.009-40.009
	c22.097,0,40.009,17.912,40.009,40.009v116.895c0,7.98-6.469,14.449-14.449,14.449H349.539z"/>
<g>
	<rect x="349.671" y="424.852" style="fill:#50555A;" width="16.203" height="61.068"/>
	<rect x="384.322" y="424.852" style="fill:#50555A;" width="16.203" height="61.068"/>
</g>
<path style="fill:#D72846;" d="M337.326,271.745l-35.638-37.575c-4.854-5.117-4.639-13.201,0.478-18.055
	c5.118-4.855,13.202-4.639,18.056,0.478l35.638,37.575c4.854,5.117,4.639,13.201-0.478,18.055
	C350.263,277.076,342.18,276.863,337.326,271.745z"/>
<path style="fill:#F75C66;" d="M274.78,241.773h35.842c10.024,0,18.152-8.127,18.152-18.152V209.81
	c0-10.024-8.127-18.152-18.152-18.152H274.78c-10.024,0-18.152,8.127-18.152,18.152v13.811
	C256.628,233.647,264.755,241.773,274.78,241.773z"/>
<polygon style="fill:#A0EBFF;" points="512,110.191 374.037,110.191 349.284,256.039 512,256.039 "/>
<path style="fill:#373C41;" d="M512,139.198h-21.125c-3.268,0-5.917,2.649-5.917,5.917v11.532c0,3.268,2.649,5.917,5.917,5.917H512
	V139.198z"/>
<path style="fill:#D72846;" d="M512,254.388H365.488l23.606-126.547h122.907V94.847H375.389c-7.944,0-14.76,5.662-16.217,13.471
	l-29.76,159.54c-1.89,10.137,5.895,19.522,16.217,19.522H512L512,254.388L512,254.388z"/>
<g style="opacity:0.22;">
	<path d="M415.108,450.881v-96.31c0-22.097-17.913-40.009-40.009-40.009c-22.097,0-40.009,17.913-40.009,40.009v81.459
		L415.108,450.881z"/>
</g>
<path style="fill:#E64B55;" d="M512,240.386H386.19c-47.332,0-85.703,38.37-85.703,85.703v66.683
	c0,17.715,14.36,32.075,32.075,32.075h179.439L512,240.386L512,240.386z"/>
<path style="fill:#50555A;" d="M332.559,424.847H512v-21.966H302.121C306.357,415.641,318.379,424.846,332.559,424.847z"/>
<g>
	<path style="fill:#D72846;" d="M512,315.209h-60.855c-6.868,0-12.436,5.568-12.436,12.436v62.785
		c0,6.868,5.568,12.436,12.436,12.436H512V315.209z"/>
	<ellipse style="fill:#D72846;" cx="374.041" cy="342.725" rx="35.101" ry="35.121"/>
</g>
<ellipse style="fill:#FAC855;" cx="374.041" cy="334.479" rx="35.101" ry="35.121"/>
<path style="fill:#B9B9BE;" d="M512,375.88h-32.888c-4.014,0-7.268,3.255-7.268,7.268v18.284c0,4.014,3.254,7.268,7.268,7.268H512
	L512,375.88L512,375.88z"/>
<path style="fill:#D2D2D7;" d="M512,375.88h-32.888c-4.014,0-7.268,3.254-7.268,7.268v8.251c0-4.014,3.254-7.268,7.268-7.268H512
	L512,375.88L512,375.88z"/>
<ellipse style="fill:#FAF58C;" cx="374.041" cy="334.479" rx="19.899" ry="19.911"/>
<path style="fill:#E64B55;" d="M512,330.196h-46.834c-5.666,0-10.258,4.592-10.258,10.258c0,5.666,4.593,10.258,10.258,10.258H512
	L512,330.196L512,330.196z"/>
<path style="fill:#F75C66;" d="M512,240.386H380.734l29.256,40.621c5.461,7.581,14.235,12.076,23.578,12.076H512L512,240.386
	L512,240.386z"/>
<path style="fill:#FA870A;" d="M335.089,389.003v-13.295c0-4.47-3.623-8.093-8.093-8.093h-26.509v25.159
	c0,1.467,0.107,2.909,0.299,4.324h26.21C331.465,397.097,335.089,393.473,335.089,389.003z"/>
<rect x="503.694" y="127.839" style="fill:#696E73;" width="8.304" height="11.357"/>
<g>
	<polygon style="opacity:0.38;fill:#FFFFFF;enable-background:new    ;" points="491.559,127.841 460.206,127.841 399.15,240.386 
		430.502,240.386 	"/>
	<polygon style="opacity:0.36;fill:#FFFFFF;enable-background:new    ;" points="512,127.841 508.059,127.841 447.004,240.386 
		465.156,240.386 512,154.036 	"/>
</g>
<g>
	<path style="fill:#73C8F0;" d="M443.895,75.537c5.882,34.637-4.025,74.076-30.078,101.559
		c-22.178,22.512-51.733,33.797-82.776,38.754c-3.578,0.662-4.76-4.835-1.259-5.828c15.147-4.295,19.977-5.313,40.019-14.961
		c9.359-5.393,6.554-3.668,13.069-8.05c20.464-14.267,33.319-34.131,38.056-51.818c9.65-29.629,0.056-60.568,1.456-55.228
		c-1.598-6.097,1.851-12.39,7.703-14.055C435.809,64.28,442.502,67.558,443.895,75.537z"/>
	<path style="fill:#73C8F0;" d="M343.318,180.19c-9.665,9.492-19.702,11.349-21.869,12.193c-2.974,0.928-4.925-3.204-2.415-5.094
		c5.894-4.44,10.419-7.92,14.045-15.376c3.781-8.303,3.279-17.608,1.625-20.234l-0.038-0.044c-2.13-6.851,1.501-13.131,7.14-14.982
		c5.864-1.926,12.117,1.467,13.964,7.577C357.99,151.572,354.511,168.595,343.318,180.19z"/>
	<path style="fill:#73C8F0;" d="M389.478,269.649c0.535-1.183-0.09-10.842-7.114-18.947c-5.527-6.055-10.683-7.995-17.379-10.408
		l-0.31-0.111c-2.933-1.057-2.205-5.596,0.902-5.603c9.162,0.012,15.323,0.441,24.31,5.127
		c11.234,6.262,17.686,15.282,21.297,26.953c1.91,6.089-1.28,12.64-7.124,14.629C397.135,283.645,389.288,278.53,389.478,269.649z"
		/>
</g>
<path style="fill:#414B82;" d="M140.859,485.47c-11.932-2.425-19.64-14.065-17.214-25.998l21.559-106.068l-10.35-82.573
	c-1.515-12.083,7.052-23.104,19.135-24.619c12.077-1.515,23.104,7.052,24.618,19.134l10.8,86.161
	c0.298,2.377,0.206,4.787-0.271,7.133l-22.279,109.613C164.438,480.155,152.82,487.902,140.859,485.47z"/>
<path style="fill:#5F6E9B;" d="M66.794,484.365c-11.324-4.478-16.873-17.287-12.396-28.61l37.282-94.282l-10.142-85.229
	c-1.439-12.092,7.197-23.06,19.288-24.499c12.094-1.441,23.06,7.198,24.499,19.288l10.8,90.761c0.432,3.631-0.045,7.312-1.39,10.713
	l-39.33,99.462C90.921,483.309,78.101,488.836,66.794,484.365z"/>
<path style="fill:#CD2D23;" d="M181.683,289.799H81.526V147.555c0-15.234,11.852-27.583,26.473-27.583h47.21
	c14.621,0,26.473,12.349,26.473,27.583L181.683,289.799L181.683,289.799z"/>
<path style="fill:#50555A;" d="M269.385,266.305c-5.971-1.552-9.554-7.651-8.002-13.622l6.767-26.037
	c1.552-5.971,7.652-9.555,13.622-8.002c5.971,1.552,9.554,7.651,8.002,13.622l-6.767,26.037
	C281.455,264.274,275.358,267.857,269.385,266.305z"/>
<path style="fill:#696E73;" d="M207.77,245.637c-1.747-5.917,1.635-12.13,7.552-13.876l78.488-23.163
	c5.915-1.746,12.13,1.635,13.877,7.552c1.747,5.917-1.635,12.13-7.552,13.876l-78.488,23.163
	C215.764,254.926,209.526,251.589,207.77,245.637z"/>
<ellipse style="fill:#BA6746;" cx="131.808" cy="66.913" rx="39.19" ry="40.832"/>
<path style="fill:#A0A0A5;" d="M7.485,443.872c-5.354-1.401-8.557-6.877-7.157-12.231l9.76-37.291
	c24.906-95.156,110.998-161.615,209.36-161.615c5.534,0,10.02,4.486,10.02,10.02c0,5.534-4.486,10.02-10.02,10.02
	c-89.252,0-167.372,60.304-189.971,146.648l-9.76,37.291C18.311,442.084,12.825,445.269,7.485,443.872z"/>
<path style="fill:#BA6746;" d="M219.34,259.199l-74.595-12.449c-6.253-1.044-11.588-5.278-14.215-11.282l-26.658-76.493
	c-4.332-9.901-0.139-21.586,9.363-26.099c9.5-4.519,20.717-0.145,25.049,9.756l22.454,66.881l64.584,10.779
	c10.312,1.721,17.332,11.825,15.68,22.57C239.352,253.594,229.659,260.922,219.34,259.199z"/>
<path style="fill:#BE1E14;" d="M118.652,201.385l35.094-12.695l-15.463-46.057c-4.332-9.901-15.549-14.275-25.049-9.756
	c-9.502,4.513-13.695,16.198-9.363,26.098L118.652,201.385z"/>
<g>
</g>
<g>
</g>
<g>
</g>
<g>
</g>
<g>
</g>
<g>
</g>
<g>
</g>
<g>
</g>
<g>
</g>
<g>
</g>
<g>
</g>
<g>
</g>
<g>
</g>
<g>
</g>
<g>
</g>
</svg>
